PathFileType	4	(X/Y/Z)	Patient4_TMGait_0pt2_02_right_05.trc.trc
DataRate	CameraRate	NumFrames	NumMarkers	Units	OrigDataRate	OrigDataStartFrame	OrigNumFrames
42.944785276074	42.944785276074	5	33	mm	42.944785276074	36	       141
Frame#	Time	R.Midfoot.Superior			Sacral			L.Shoulder			Chest			R.Shoulder			Neck			R.ASIS			L.ASIS			R.Thigh.Superior			R.Thigh.Lateral			R.Thigh.Inferior			R.Patella			L.Thigh.Superior			L.Thigh.Lateral			L.Thigh.Inferior			L.Patella			L.Shank.Superior			L.Shank.Lateral			L.Shank.Inferior			R.Shank.Superior			R.Shank.Lateral			R.Shank.Inferior			R.Heel			R.Midfoot.Lateral			R.Toe			L.Heel			L.Midfoot.Lateral			L.Midfoot.Superior			L.Toe			L.Elbow			L.Wrist			R.Elbow			R.Wrist			
		X1	Y1	Z1	X2	Y2	Z2	X3	Y3	Z3	X4	Y4	Z4	X5	Y5	Z5	X6	Y6	Z6	X7	Y7	Z7	X8	Y8	Z8	X9	Y9	Z9	X10	Y10	Z10	X11	Y11	Z11	X12	Y12	Z12	X13	Y13	Z13	X14	Y14	Z14	X15	Y15	Z15	X16	Y16	Z16	X17	Y17	Z17	X18	Y18	Z18	X19	Y19	Z19	X20	Y20	Z20	X21	Y21	Z21	X22	Y22	Z22	X23	Y23	Z23	X24	Y24	Z24	X25	Y25	Z25	X26	Y26	Z26	X27	Y27	Z27	X28	Y28	Z28	X29	Y29	Z29	X30	Y30	Z30	X31	Y31	Z31	X32	Y32	Z32	X33	Y33	Z33	

36	10.775000000000	1041.748014065577	97.167766182693	580.533296319028	765.124500481573	1008.841668551536	463.427723906617	987.253534401567	1430.949204724758	314.154900121937	1054.914132969569	1361.332451867092	491.194810178979	944.900381753185	1439.666139698096	646.271233295788	937.414480967343	1493.613950007113	466.804144414757	976.839791380085	937.731049090386	611.410842105898	998.690524043651	959.335333757862	337.977192494525	1036.093312535457	747.126647148069	573.879431086268	966.462995276862	630.435219733481	632.041029597580	1049.339086206043	585.239358752362	552.038403493382	1059.727996776661	496.866212420247	558.985293797678	1004.667982879232	730.076052054518	362.436979171640	902.406117360727	629.581181010225	285.576465379191	963.465916198024	538.023087948999	353.260929071178	950.434892002662	466.252984618868	356.961606111883	905.378016005195	404.076708590745	342.803712463754	794.706376680736	316.299750655832	279.496946356774	813.687626474530	191.447933048529	343.764208410622	1031.990303055301	406.448989387592	567.459292378221	965.351539589652	303.754845621853	636.229801918176	1003.587197409138	207.245809580638	572.958290717730	868.574621101902	42.847206069451	558.743517586713	957.519201808758	37.511049352033	626.705143583926	1163.749331282386	46.998730459955	599.648207839051	655.568923421400	53.546881589936	366.481982965622	735.805743487163	43.309560373216	293.544207974472	821.706756509415	97.998960587477	326.603657611075	946.582795002836	38.293262046283	307.669368436403	1128.007607465725	1141.946402451362	154.790701886273	1383.922343141944	1166.700879011906	189.589033014006	789.270276705508	1125.503942189641	733.565101388805	768.663824169089	863.874658530198	743.696809820074	
37	10.798285714286	1037.297664937987	97.124311296327	580.596139276410	766.081986656345	1010.178672489515	471.545610572329	987.113157298617	1431.434283441528	318.319677739599	1057.192510710790	1361.823409671743	494.395177322701	949.696666795989	1440.683819994515	650.955021716318	939.590264264203	1494.449287635593	471.321068070578	979.483911686800	938.354033129293	616.514773540098	997.729566154485	960.012138495847	342.786484286882	1036.407162426547	746.707199770613	578.022804808129	965.965325054381	630.375759027162	636.151983984469	1047.756843678659	584.832030059382	555.335788139934	1057.400693142346	496.321253594298	561.793609537091	1003.909867324712	730.953776604626	365.906693152459	901.281073342955	630.779702619679	289.073238895680	963.945515505468	538.627526432113	355.024425514444	951.042987804315	466.373357653535	358.023918869594	904.783422241669	405.027427520609	343.958454023931	792.342796778860	318.999003417321	280.994529228717	811.268710525591	193.025773454045	343.601463098352	1029.188151099442	406.152185485395	569.659140099765	962.197278495261	303.268067354760	637.608125161539	999.854464827106	207.051868867935	573.669671019272	864.202133793048	42.927450939017	558.687171979238	953.101849676885	37.536265679798	626.648727979852	1159.358870809418	46.782502879343	599.842610861518	651.691558130626	56.440473521628	366.051600281546	731.834186214195	44.444535302184	293.236997929612	818.625224689951	98.196341975365	325.898031028623	942.467377399872	37.977698766253	307.494490938758	1119.764006944617	1137.174180492088	159.179744161813	1377.099219187828	1151.649595193849	192.319694641400	795.124916457849	1126.552694660697	741.697000001918	774.963621238832	865.046680859811	753.698647266495	
38	10.821571428571	1032.833696350726	97.076022497948	580.615841430265	766.867759191566	1011.381658399008	479.674992717109	986.636023376972	1431.797694413504	322.393211621781	1059.256056952471	1362.179358042680	497.427698065356	954.380891887887	1441.543966365246	655.495907067036	941.573494241880	1495.172837807722	475.724961843998	981.956319315967	938.824863687428	621.443240199371	996.532587170689	960.653102187113	347.496389805408	1036.688007531395	746.275730046414	581.971879921328	965.554871686822	630.254897004013	640.150071788429	1046.244509102586	584.434368200654	558.520110864876	1055.162598723819	495.745673169187	564.580298624840	1003.501014527861	732.027330835130	369.190318595250	900.788997665613	631.880003349032	292.492230222427	965.433655193338	539.310730364138	356.600525066938	952.801470849421	466.421105936100	358.824035188926	905.165869796331	405.938813605095	344.992769962712	790.814143703636	321.933980028017	282.437189086539	809.426757752156	194.869386322599	343.416998523951	1026.444402196083	405.813509908135	571.842401963877	959.013974202941	302.783072057146	638.935872493115	996.135031947333	206.853499656386	574.359983278506	859.761599383481	43.052362020449	558.587219290767	948.622848869863	37.582614685436	626.540251749062	1154.908843078499	46.497415416070	599.997775185425	648.102751762804	60.073024918607	365.649276550739	727.988393351383	45.988788090306	292.947357706274	815.838454469996	98.516861690627	325.128838414841	938.314237457077	37.604785762189	307.338985564311	1110.215373750096	1131.710232200909	164.094952376122	1368.534339415213	1133.953155675832	195.088944526930	801.671979578887	1126.995389816763	749.826064387004	782.581561650365	865.543552760129	763.680876866823	
39	10.844857142857	1028.361485617427	97.019046789952	580.596379542782	767.472381606456	1012.327937960811	487.784167113748	985.746833939416	1431.957203215283	326.378998767717	1061.013874164886	1362.345322731484	500.309304871489	958.823055682553	1442.166496915843	659.891594323999	943.253566392462	1495.702691936052	480.015229163171	984.268859778691	939.092889032466	626.195941003456	995.135497502250	961.198468805693	352.111101099727	1037.078100837028	745.837946915794	585.688841469403	965.446535548330	630.031950710123	643.993463805351	1045.034935232771	584.037026826057	561.544962110638	1053.289994954066	495.093888946029	567.286209155184	1003.634807584881	733.298435996886	372.299635769293	901.234913982748	632.816729642405	295.838009839983	968.271670380571	540.086002992802	358.032865651875	956.095866853383	466.378583723006	359.387893968353	906.883199040247	406.761190792734	345.956545097423	790.456282147963	325.173609856302	283.869853726731	808.329292625275	197.083960135300	343.294318449169	1023.978022370279	405.377351383585	573.960426855636	955.987050179552	302.285009372126	640.204812246724	992.520179889862	206.608367512796	575.004641749230	855.254429975789	43.213152930957	558.453813710055	944.083635824673	37.646418439193	626.391206314723	1150.406882867196	46.140346994070	600.119725630397	644.915016946192	64.821905254682	365.386809550800	724.295142498085	48.262683463442	292.768823047722	813.392621276897	99.126016659092	324.379905495750	934.032585333830	37.142594117758	307.231692250321	1099.440391602587	1125.587473624001	169.662165375458	1357.963567871200	1113.504137427384	197.941515150617	809.037741483622	1126.665274069692	757.927216614138	791.788140931296	865.191148769185	773.599389238718	
40	10.868142857143	1023.890419679181	96.952755379923	580.545284940288	767.879024731444	1012.882494467742	495.827554570769	984.376220374569	1431.815543795490	330.270710721652	1062.371723770452	1362.256142468741	503.052800180330	962.883610386012	1442.467015872484	664.133195691724	944.517064825257	1495.945530501042	484.183448470079	986.423417094802	939.099770035967	630.778336704003	993.577640764885	961.573459723398	356.632315555875	1037.696769714631	745.381570008197	589.150753380830	965.823930638857	629.647996925288	647.638152051573	1044.337568009084	583.614355782466	564.364418298801	1052.034892778670	494.312300319164	569.843157430361	1004.507526857612	734.765467746016	375.276738189703	902.957120805185	633.525597779809	299.123396897628	972.815263310135	540.977945208810	359.398386040976	961.321020481312	466.245754088335	359.778267125483	910.306000593383	407.450694065688	346.919885235429	791.621702741859	328.804399710070	285.359691572381	808.144997892701	199.798575926506	343.335541745879	1021.989048544416	404.782914404050	575.958880222256	953.288157926205	301.751096230873	641.398828325626	989.094713044290	206.273800883366	575.579734480194	850.693579777527	43.398495983395	558.300342869267	939.496146859105	37.722510174845	626.216462358677	1145.867709225933	45.719615986415	600.216232784420	642.252735105371	71.121241305439	365.407476051114	720.785331679806	51.650713157654	292.819837110923	811.328086613448	100.236801475024	323.760993369401	929.513725273671	36.567888808829	307.208724837625	1087.573013713617	1118.858229648213	175.965887738679	1345.109817048582	1090.301708747412	200.926634098231	817.318521751397	1125.428012053590	765.960757088050	802.832186247358	863.864572957271	783.403254379753	
